<?xml version="1.0" encoding="UTF-8"?>
<svg xmlns="http://www.w3.org/2000/svg" viewBox="0 0 137 143" width="137" height="143">
<path d="M66.82 5.65C70.45 5 72.75 6.98 75.8 8.44C83.3 12.01 90.53 16.85 97.68 21.07C104.14 24.88 110.23 29.35 116.82 32.94C119.63 34.47 123.32 35.14 124.99 38.28C127.38 42.8 126.17 48.37 126.3 53.25C126.6 64.77 126.18 76.24 126.35 87.75C126.43 92.98 127.99 100.35 124.52 104.78C121.9 108.12 117.61 109.31 114.04 111.3C106.74 115.36 99.56 119.85 92.37 124.13C87.57 127 73.54 136.36 68.75 136.51C62.9 136.7 49.82 127.09 44.39 123.84C37.27 119.57 30.01 115.54 22.81 111.44C19.4 109.5 14.41 107.99 12.03 104.7C8.87 100.33 10.49 92.76 10.59 87.75C10.82 76.26 10.22 64.75 10.38 53.25C10.44 48.8 9.46 42.84 11.45 38.72C13.59 34.28 19.9 32.9 23.73 30.49C33.15 24.55 43.03 19.46 52.54 13.77C57.1 11.03 61.33 6.64 66.82 5.65ZM106.46 42.75C106.08 39.44 100.99 37.52 98.26 35.99C91.74 32.33 84.76 28.94 78.58 24.68C75.87 22.81 71.07 18.76 67.76 19.09C63.52 19.52 52.72 28.53 48.2 30.94C44.08 33.14 40.08 35.58 35.97 37.71C33.52 38.97 30.4 39.53 30.24 42.75C31.36 44.55 33.61 45.35 35.42 46.32C37.47 47.4 40.08 49.93 42.57 49.75C49.14 49.26 62.46 35.19 69.23 36.08C75.86 36.96 87.39 48.97 93.76 49.99C96.8 50.48 104.74 45.3 106.46 42.75ZM69.25 47.32C65.98 47.67 51.67 53.35 54.11 57.64C55.13 59.43 67.18 65.19 69.25 64.99C71.68 64.77 74.33 62.33 76.46 61.22C78.89 59.97 82.35 58.5 83.04 55.75C78.44 52.94 73.85 50.13 69.25 47.32ZM63.25 118.57C64.19 116.42 63.86 114.07 63.82 111.75C63.78 109.3 64.37 105.33 63.04 103.2C61.98 101.51 59.62 101.19 58.04 100.21C53.59 97.46 49.2 94.72 44.63 92.13C42.21 90.76 38.99 89.8 37.63 87.13C34.45 80.83 39.26 67.07 36.86 59.84C36.09 57.52 25.76 51.97 23.48 52.25C21.81 55.3 22.62 60.32 22.7 63.75C22.88 71.57 22.53 79.43 22.87 87.25C23 90.25 22.15 95.05 24.25 97.48C27.59 101.34 40.01 106.43 44.92 109.32C48.58 111.48 59.52 119.71 63.25 118.57ZM112.84 53.25C110.2 52.79 101.15 57.65 99.87 60.14C98.37 63.08 98.94 67.57 99.01 70.75C99.1 74.78 98.37 80.14 99.78 83.96C100.81 86.76 109.91 91.18 112.75 90.89C114.63 88.9 113.8 84.35 113.8 81.75C113.8 75.43 113.66 69.06 113.86 62.75C113.95 59.83 114.55 55.68 112.84 53.25ZM62.75 89.14C64.05 87.46 63.77 85.82 63.82 83.75C64.04 74.81 62.61 74.96 55.65 70.6C52.98 68.93 52.19 66.73 48.61 67.25C47.28 69.19 47.8 71.46 47.87 73.75C48.1 82.22 48.85 83.27 56.38 86.85C58.44 87.83 60.42 89.49 62.75 89.14ZM88.25 67.58C85.31 66.4 84.01 68.59 81.61 69.85C74.19 73.77 73.28 74.61 73.08 83.25C73.03 85.33 72.37 88.04 73.75 89.75C76.6 90.22 78.03 88.48 80.35 87.1C82.21 85.98 85.66 84.34 86.96 82.67C89.4 79.53 89.87 71 88.25 67.58ZM106.64 99.75C105.5 97.39 103.28 96.04 101.11 94.66C93.01 89.52 88.49 93.56 81.32 98.07C79.41 99.27 75.64 100.4 74.36 102.12C72.84 104.18 72.55 116.33 73.45 118.75C77.09 119.3 80.99 115.63 84.03 113.78C91.71 109.13 99.93 105.73 106.64 99.75Z" fill="#f85816" fill-rule="evenodd" stroke="#f85816" stroke-width="0.25" stroke-linejoin="round"/>
</svg>