<?xml version="1.0" encoding="UTF-8"?>
<svg xmlns="http://www.w3.org/2000/svg" viewBox="0 0 96 87" width="96" height="87">
<path d="M0.08 61.05C0.08 56.53 0.08 52.02 0.08 47.5C3.09 44.48 3.68 40.4 7.82 37.05C10.21 35.11 16.95 33.56 18.19 31.94C19.82 29.8 20.83 24.48 22.78 21.53C29.26 11.72 42.4 6.24 53.69 11.07C58.34 13.05 62.92 16.19 65.93 20.33C67.27 22.18 68.4 26.77 70.47 27.75C72.22 28.57 74.77 28.11 76.7 28.62C81.58 29.89 86.37 33.27 89.58 37.17C99.66 49.43 94.41 69.63 79.53 75.25C74.38 77.19 69.16 76.86 63.75 76.88C60.12 76.9 55.05 77.82 51.72 76.25C51.27 73.92 52.43 69.92 55.13 69.3C63.32 67.41 71.39 70.96 79.23 66.51C90.05 60.37 89.38 42.4 77.97 37.28C72.89 35.01 69.3 37.25 64.75 36.21C62.51 32.85 62.95 28.61 59.6 24.64C51.75 15.33 37.68 14.93 29.74 24.49C25.95 29.06 26.92 36.51 25.03 38.78C23.43 40.69 20.02 39.65 17.89 40.19C13.83 41.23 9.82 44.57 8.26 48.49C7.51 50.39 7.2 52.67 7.24 54.7C7.53 69.15 20.26 69.15 31.25 69.26C34.21 69.3 37.95 70.25 40.75 69.5C41.91 67.61 41.92 56.36 40.75 54.5C38.85 55.31 37.64 57.81 35.56 58.26C32.9 58.83 30.74 55.56 32.02 53.3C33.71 50.29 42.38 40.49 45.25 39.05C47.47 39.46 48.23 41.01 49.66 42.6C52.88 46.19 58.8 50.57 60.16 55.25C57.56 62.02 53.92 56.49 50.75 54.47C47.94 59.12 52.07 65.65 46.63 71.38C45.21 72.88 42.64 75.2 40.72 75.96C34.04 78.62 15.19 77.42 9.18 73.06C4.2 69.44 3.58 65.36 0.08 61.05Z" fill="#1868f6" fill-rule="evenodd" stroke="#1868f6" stroke-width="0.25" stroke-linejoin="round"/>
</svg>