<?xml version="1.0" encoding="UTF-8"?>
<svg xmlns="http://www.w3.org/2000/svg" viewBox="0 0 252 281" width="252" height="281">
<path d="M176 224.51C176 203.97 176 183.43 176 162.89C171.59 163.62 166.91 167.49 163.02 169.74C153.72 175.12 144.35 180.37 135.08 185.81C130.87 188.28 123.74 190.69 122.08 195.79C120.52 200.57 121.5 206.77 121.5 211.75C121.5 221.58 121.5 231.42 121.5 241.25C121.5 245.88 122.09 251.01 121.25 255.55C115.78 254.53 101.26 244.54 95.51 241.26C76.97 230.72 58.47 220.03 40 209.27C32.97 205.16 18.88 199.44 15.2 192.1C11.52 184.77 12.83 175.68 12.83 167.75C12.83 152.08 12.83 136.42 12.83 120.75C12.83 110.08 12.83 99.42 12.83 88.75C12.83 82.22 12.15 75.48 15.27 69.5C19.3 61.8 33.52 55.99 40.98 51.71C58.34 41.74 75.73 31.83 93.03 21.75C99.7 17.86 110.93 9.76 118.16 8.31C125.71 6.8 131.76 11.22 137.92 14.81C148.88 21.21 159.96 27.41 170.92 33.81C184.2 41.57 197.62 49.08 210.9 56.84C216.84 60.31 224.21 63.21 227.73 69.5C230.97 75.29 230.17 81.82 230.17 88.25C230.17 99.25 230.17 110.25 230.17 121.25C230.17 136.42 230.17 151.58 230.17 166.75C230.17 172.66 231.45 182.48 229.67 187.92C227.27 195.28 221.43 198.7 215.08 202.33C207.03 206.95 199.05 211.67 191.02 216.29C186.33 218.99 181.22 223.13 176 224.51ZM175.75 162.02C176.56 157.46 176 152.39 176 147.75C176 138.08 176 128.42 176 118.75C176 112.99 177.36 105.34 174.7 100.03C173.42 97.47 169.93 96.02 167.6 94.66C161.38 91.03 155.1 87.49 148.9 83.83C143.13 80.42 137.32 77.08 131.52 73.72C128.44 71.94 125.46 69.65 121.75 69.58C115.45 69.45 104.73 77.6 99.14 80.88C92.41 84.83 85.68 88.81 78.88 92.63C75.8 94.36 71.42 96.11 69.19 98.93C65.92 103.08 67.17 109.86 67.17 114.75C67.17 125.58 67.17 136.42 67.17 147.25C67.17 151.51 66.04 157.86 67.58 161.75C71.61 160.78 75.83 157.31 79.42 155.21C88.27 150.02 97.31 145.15 106.12 139.86C110.31 137.34 115.91 132.67 120.89 132.23C126.14 131.77 132.58 137.29 136.9 139.83C145.24 144.71 153.73 149.33 162.07 154.21C166.53 156.81 171.07 159.97 175.75 162.02Z" fill="#642dff" fill-rule="evenodd" stroke="#642dff" stroke-width="0.25" stroke-linejoin="round"/>
</svg>