<?xml version="1.0" encoding="UTF-8"?>
<svg xmlns="http://www.w3.org/2000/svg" viewBox="0 0 106 86" width="106" height="86">
<path d="M63.25 6.28C65.21 10.47 61.85 17.23 60.74 21.47C57.07 35.49 52.38 49.25 48.47 63.23C47.11 68.07 46.07 79.01 39.25 77.59C36.84 74.19 40.71 67.04 41.56 63.26C42.69 58.26 44.55 53.54 45.8 48.62C48.26 38.93 50.75 29.16 53.85 19.64C55.14 15.66 56.74 3.43 63.25 6.28ZM19.63 41.75C20.69 47.12 34.14 54.91 35.81 59.4C36.66 61.69 35.15 64.14 34.69 66.35C34.26 68.42 33.82 70.93 32.25 72.4C29.36 72.14 26.55 68.27 24.54 66.21C19.24 60.77 14.13 54.87 8.44 49.8C6 47.63 2.65 44.96 3.06 41.26C3.36 38.53 6.05 36.42 7.87 34.62C12.46 30.05 16.89 25.31 21.45 20.7C24.41 17.72 32.15 8.53 35.16 6.91C36.22 6.33 37.58 6.31 38.75 6.51C43.22 7.25 44.88 14.07 42.73 17.48C37.62 25.56 23.72 33.74 19.63 41.75ZM81.95 41.75C78.85 36.96 74.24 33.03 70.13 29.11C68.56 27.61 65.77 25.84 65.19 23.62C64.61 21.42 66.15 17.78 66.88 15.67C67.52 13.83 68.12 12.03 69.61 10.75C72.29 11.29 74.83 14.68 76.68 16.57C82.47 22.45 87.95 28.63 93.89 34.36C96.43 36.82 99.46 39.24 98.85 43.21C98.45 45.88 95.27 48.4 93.36 50.1C89.02 53.96 85.22 58.26 81.15 62.4C77.95 65.65 69.14 76.93 64.75 76.6C59.69 76.21 57.43 69.56 59.86 65.62C64 58.9 71.55 53.87 76.79 48.05C78.59 46.05 81.39 44.47 81.95 41.75Z" fill="#32af67" fill-rule="evenodd" stroke="#32af67" stroke-width="0.25" stroke-linejoin="round"/>
</svg>