<?xml version="1.0" encoding="UTF-8"?>
<svg xmlns="http://www.w3.org/2000/svg" viewBox="0 0 93 87" width="93" height="87">
<path d="M59.25 74.54C56.53 71.6 51.15 57.24 52.25 53.54C55.13 51.1 57.6 50.13 58.9 46.19C61.41 38.59 54.99 29.73 46.77 30.19C38.98 30.63 33.56 39.2 36.32 46.41C37.8 50.26 41.13 51.2 43.15 54.25C43.07 59.05 39.74 64.78 38.07 69.29C37.28 71.4 37.2 73.2 35.25 74.57C23.26 73.92 15.12 57.85 13.06 47.75C8.97 27.6 26.03 7.56 46.25 7.33C66.56 7.09 81.82 23.17 82.11 43.25C82.28 54.44 71.98 74.29 59.25 74.54Z" fill="#38b06b" fill-rule="evenodd" stroke="#38b06b" stroke-width="0.25" stroke-linejoin="round"/>
</svg>