<?xml version="1.0" encoding="UTF-8"?>
<svg xmlns="http://www.w3.org/2000/svg" viewBox="0 0 112 101" width="112" height="101">
<path d="M70.74 32.58C70.43 35.15 69.2 38.12 67 39.59C65.46 40.31 63.91 41.03 62.37 41.75C62.41 41.84 62.46 41.92 62.5 42.01C61.03 42.16 59.56 42.32 58.08 42.48C55.76 40.99 53.05 40.97 50.92 38.77C45.62 33.32 47.57 23.28 54.05 19.55C58.78 16.82 66.11 18.91 69.02 23.53C70.71 26.21 70.37 29.65 70.74 32.58ZM40.42 32.08C40.97 33.4 42.51 34.13 43.02 35.5C44.86 40.35 42.44 43.52 39 46.25C31.11 45.18 29.54 42.56 31.8 34.56C34 31.77 37.12 31.48 40.42 32.08ZM86.93 35C88.65 37.05 88.02 39.92 87.92 42.42C86.26 43.15 85.52 45.05 83.96 45.97C80.83 47.81 78.73 45.33 76 44.75C75.42 43.83 74.83 42.92 74.25 42C74.95 37.15 74.97 34.94 79 31.75C82.67 32.2 84.14 32.71 86.93 35ZM76.75 78.5C75.52 78.83 74.75 79.71 73.5 80.05C63.88 82.68 49.6 82.57 40.75 78C40.48 69.84 40.01 61.84 45.07 55.05C51.1 46.96 66.69 46.85 72.92 54.8C78.12 61.43 78.37 70.82 76.75 78.5ZM40.25 52.5C39.94 55.25 37.61 56.73 36.76 59.24C35.63 62.6 35.94 66.57 34.68 69.75C32.24 71.34 28.6 70.54 26 70.25C24.06 63.23 26.27 52.67 35.25 51.77C36.98 51.59 38.8 51.46 40.25 52.5ZM80 51.56C81.44 51.75 83.07 51.59 84.5 51.95C92.29 53.89 94.4 63.99 91.5 70.25C90.17 70.38 88.83 70.5 87.5 70.63C85.34 70.68 83.68 70.51 82.7 68.43C83.3 64.72 81.96 58.24 79.43 55.37C78.42 53.85 78.13 52.35 80 51.56Z" fill="#fab123" fill-rule="evenodd" stroke="#fab123" stroke-width="0.25" stroke-linejoin="round"/>
</svg>