<?xml version="1.0" encoding="UTF-8"?>
<svg xmlns="http://www.w3.org/2000/svg" viewBox="0 0 106 92" width="106" height="92">
<path d="M36.75 58.31C37.69 56.59 37.68 54.72 38.17 52.86C40.16 45.34 42.04 37.79 44.04 30.26C44.73 27.68 44.97 22.57 46.96 20.7C48.97 18.81 53.21 19.17 55.75 19.4C60.21 19.8 60.37 25.44 61.31 28.87C63.07 35.26 66.12 53.38 69.25 58.01C70.91 55.73 70.98 52.28 71.8 49.59C74.48 40.77 75.05 29.99 78.34 21.61C79.73 18.05 88.18 18.45 90.25 21.04C90.8 25.17 88.21 29.62 87.3 33.61C84.91 44.07 82.37 54.65 79.21 64.92C78.22 68.15 77.58 76.63 73.72 77.4C71.06 77.94 65.52 78.31 63.35 76.4C61.57 74.84 61.92 71.64 61.21 69.54C58.95 62.91 57.46 55.97 55.61 49.21C54.92 46.68 54.66 42.36 52.75 40.61C50.98 42.8 51.14 45.59 50.37 48.18C48.29 55.23 46.93 62.47 44.75 69.49C44.09 71.64 43.91 75.37 42.19 76.94C40.35 78.63 33.42 78.38 31.14 77.67C27.76 76.62 27.26 69.25 26.64 66.22C24.3 54.91 20.36 43.93 17.48 32.75C16.81 30.11 13.02 21.33 16.07 19.82C18.54 18.6 25.45 18.55 27.1 21.15C28.44 23.24 28.28 26.4 28.93 28.77C30.79 35.56 31.97 42.55 33.85 49.34C34.53 51.79 34.15 57.43 36.75 58.31Z" fill="#5233b3" fill-rule="evenodd" stroke="#5233b3" stroke-width="0.25" stroke-linejoin="round"/>
</svg>