<?xml version="1.0" encoding="UTF-8"?>
<svg xmlns="http://www.w3.org/2000/svg" viewBox="0 0 92 93" width="92" height="93">
<path d="M54.4 15.74C60.64 14.99 57.89 24.64 57.13 27.79C53.86 41.35 50.57 54.99 47.8 68.63C47.18 71.67 46.03 83.34 41.87 82.82C35.65 82.05 39.68 73.51 40.15 69.75C40.98 62.98 43.07 56.56 44.73 49.97C46.41 43.33 47.62 36.5 49.14 29.81C49.89 26.51 50.51 16.21 54.4 15.74ZM66.25 68.45C63.46 67.77 61.04 64.68 63.22 61.97C65.55 59.08 74.44 52.6 74.75 49.54C72.26 44.5 65.59 42.35 62.71 37.55C61.32 35.21 62.19 31.45 65.27 31.09C68.87 30.67 78.18 42.01 81.04 44.7C82.49 46.06 85.02 47.88 84.8 50.17C84.58 52.47 81.83 54.11 80.34 55.59C76.18 59.77 71.66 65.88 66.25 68.45ZM31.75 31.29C42.53 35.24 25.61 45.39 22.92 49.75C23.99 55.62 31.82 57.83 34.92 62.34C36.83 65.13 34.16 68.42 31.24 68.75C25.87 66.15 21.57 59.58 17.18 55.56C15.63 54.15 12.87 52.58 12.83 50.25C12.78 47.83 15.22 46.02 16.79 44.54C21.29 40.3 25.99 33.67 31.75 31.29Z" fill="#e14b75" fill-rule="evenodd" stroke="#e14b75" stroke-width="0.25" stroke-linejoin="round"/>
</svg>