<?xml version="1.0" encoding="UTF-8"?>
<svg xmlns="http://www.w3.org/2000/svg" viewBox="0 0 82 78" width="82" height="78">
<path d="M38.78 3.63C52.67 0.94 55.73 24.42 42.1 26.27C28.45 28.12 25.42 6.23 38.78 3.63ZM17.86 15.67C27.16 13.54 28.51 30.41 19.25 30.67C11.34 30.9 10.25 17.42 17.86 15.67ZM59.86 16.17C68.51 13.5 72.38 27.38 64.54 30.26C55.49 33.58 51.91 18.63 59.86 16.17ZM24.25 61.24C23.07 58.96 23.33 56.29 23.27 53.76C23.15 48.13 23.37 42.45 27.18 37.92C33.88 29.97 48.49 29.93 54.76 38.49C57.73 42.56 61.78 56.8 57.96 60.71C56.16 62.54 53.52 62.29 51.25 62.96C43.21 65.33 31.98 64.75 24.25 61.24ZM22.23 35.75C22.74 37.98 20.43 40.24 19.6 42.35C18.15 46.03 18.77 50.03 17.75 53.77C15.27 55.37 10.9 54.91 8.24 53.75C4.02 45.88 12.65 31.42 22.23 35.75ZM63.75 53.9C62.75 49.62 63.08 45.21 61.84 40.83C61.28 38.86 59.46 37.89 59.84 35.75C68.11 31.57 75.97 45.29 74.03 52.24C73.08 55.64 66.09 55.55 63.75 53.9Z" fill="#345ee7" fill-rule="evenodd" stroke="#345ee7" stroke-width="0.25" stroke-linejoin="round"/>
</svg>