<?xml version="1.0" encoding="UTF-8"?>
<svg xmlns="http://www.w3.org/2000/svg" viewBox="0 0 287 233" width="287" height="233">
<path d="M91.01 156.25C90.04 160.59 93.15 168.93 98.25 168.45C100.05 166.65 100.07 164.72 102.75 163.84C104.7 165.47 104.65 169.92 103.31 172.08C101.66 174.75 98.64 174.49 99.7 178.61C100.39 181.32 102.55 183.56 103.69 186.06C107.96 195.43 113.68 204.48 104.59 212.84C102.88 214.41 101.09 215.56 98.82 216.15C96.53 216.75 94.16 217.57 91.76 217.37C83.71 216.71 80.58 210.64 77.28 204.45C72.31 195.12 68.29 185.19 63.65 175.62C62.15 172.53 61.08 167.11 58.31 164.95C56.08 163.21 50.99 164.25 48.23 163.6C41.34 161.97 34.27 156.52 31.15 150.12C29.28 146.27 28.51 141.93 27.34 137.86C26.27 134.11 26.46 130.66 27.2 126.88C30.5 109.95 40.52 106.34 55.18 100.9C61.03 98.73 67.09 95.91 72.57 92.8C90.66 82.53 106.65 68.72 120.16 52.91C125.02 47.23 130.39 40.84 133.92 34.16C135.53 31.11 135.37 27.52 136.73 24.46C140.51 15.92 148.43 11.6 157.48 15.27C168.36 19.68 174.88 32.28 180.41 41.84C189.1 56.89 196.16 73.1 200.85 89.84C202.19 94.62 202.76 99.49 203.86 104.28C205.63 111.94 207.59 119.33 207.99 127.25C208.54 138.26 210.73 162.6 198.06 168.28C192.68 170.7 187.16 170.93 181.9 167.84C179.31 166.33 176.65 163.05 173.79 162.35C171.66 161.82 169.39 162.06 167.24 161.54C148.97 157.14 131.22 153.23 112.25 153.52C108.64 153.57 93.27 154.61 91.01 156.25ZM150.35 21.69C145.03 22.34 143.17 29.52 142.53 33.75C140.91 44.54 140.6 54.88 142.7 65.64C143.17 68.04 142.38 71.06 143.45 73.28C144.62 75.68 147.38 74.67 149.38 74.19C154.49 72.94 159.95 71.98 165.17 71.3C175.1 70.02 184.86 80.52 187.58 89.22C192.24 104.07 182.39 112.49 172.25 120.5C170.09 122.21 162.66 125.63 162.28 128.02C162.02 129.61 166.43 136.63 167.47 138.29C171.97 145.43 176.29 152.92 182.82 158.44C185.56 160.76 189.01 163.37 192.8 162.11C196.9 160.76 198.3 156.35 199.38 152.72C199.67 151.72 200.46 151.01 200.75 150.03C202.5 144.05 201.31 133.46 200.5 127.25C197.61 105.34 192.38 83.5 182.56 63.68C178.94 56.36 176.28 48.38 171.63 41.63C167.73 35.97 158.34 20.71 150.35 21.69ZM133.25 51.08C129.84 51.62 127.16 56.71 125.04 59.3C119.78 65.71 113.45 71.43 107.43 77.19C100.93 83.39 93.34 89.7 85.51 94.25C82.72 95.87 70.87 101.69 69.53 103.29C67 106.33 68.09 112.79 68.78 116.4C70.63 126.08 73.61 134.69 78.34 143.39C79.16 144.89 79.78 147.06 81.01 148.24C83.09 150.23 85.34 148.81 87.75 148.41C93.59 147.43 99.45 146.82 105.25 145.86C118.13 143.74 137.26 146.92 150.17 149.18C155.18 150.06 160.71 152.65 165.81 152.25C165.44 148.28 158.66 138.97 156.46 134.8C150.44 123.37 144.85 111.01 141.19 98.62C140.69 96.9 140.91 95.02 140.47 93.27C138.26 84.5 136.1 75.84 134.87 66.75C134.41 63.38 134.61 53.34 133.25 51.08ZM164.25 80.49C162.57 79.75 148.32 81.75 146.68 82.75C145.46 85.28 146.58 88.02 147.2 90.62C148.77 97.29 151.69 103.45 153.78 109.95C154.46 112.1 155.69 116.97 157.52 118.23C159.86 119.84 161.03 117.69 162.9 116.67C166.66 114.61 174.03 111.35 174.85 106.75C173.18 103.51 169.77 101.31 168.49 97.74C167.11 93.87 165.68 82.63 164.25 80.49ZM178.75 100.94C184.9 97.41 177.84 79.42 171.75 82.23C170.58 85.96 175.33 98.79 178.75 100.94ZM59.75 107.72C55.54 108.15 50.79 110.5 46.89 112.16C36.89 116.41 32.35 126.48 35.18 137.14C35.53 138.46 36.4 139.58 36.82 140.88C38.73 146.88 41.41 152.49 47.44 155.29C52.36 157.58 58.47 155.62 63.31 154.1C66.47 153.11 70.34 153.27 72.79 150.75C72.59 147.18 68.77 142.82 67.31 139.43C64.62 133.24 62.99 126.49 61.8 119.88C61.25 116.86 61.42 109.64 59.75 107.72ZM102.88 204.25C101.65 199.2 98.2 193.99 95.99 189.25C93 182.87 90.76 176.11 87.34 169.9C85.97 167.4 83.6 160.11 81.48 158.77C79.18 157.31 69.48 160.78 67.25 162.36C66.32 165.69 71.32 173.85 72.95 177.29C76.46 184.69 79.87 192.25 83.82 199.41C85.09 201.73 85.45 205.09 87.1 207.14C91.38 212.43 99.7 208.63 102.88 204.25Z" fill="#f3f5f9" fill-rule="evenodd" stroke="#f3f5f9" stroke-width="0.25" stroke-linejoin="round"/>
<path d="M217.73 42.25C215.24 42.49 213.33 41.85 211.87 39.75C212.25 35.71 215.71 32.44 218.09 29.35C221.33 25.15 224.46 20.59 227.42 16.16C228.98 13.82 231.59 11.09 234.63 13.13C237.97 15.38 235.05 19.13 233.62 21.37C229.59 27.67 222.95 36.97 217.73 42.25ZM261.75 64.12C256.85 68.18 241.7 71.99 234.97 74.72C232.04 75.91 227.96 76.73 227.23 72.59C226.51 68.54 230.72 67.37 233.76 66.53C241.38 64.4 248.23 60.29 255.95 58.23C260.32 57.07 262.72 59.88 261.75 64.12ZM236.89 104.68C239.13 103.96 241.96 105.34 244.2 105.69C250.91 106.72 258.62 108.06 265.06 110.23C267.18 110.95 268.07 113.08 267.41 115.2C266.81 117.12 264.35 118.16 262.51 117.74C255.44 116.13 248.27 114.37 241.24 112.51C239.64 112.09 237.75 112.27 236.27 111.5C233.58 110.12 233.98 105.63 236.89 104.68Z" fill="#e4b870" fill-rule="evenodd" stroke="#e4b870" stroke-width="0.25" stroke-linejoin="round"/>
</svg>