<?xml version="1.0" encoding="UTF-8"?>
<svg xmlns="http://www.w3.org/2000/svg" viewBox="0 0 113 101" width="113" height="101">
<path d="M0.13 0.13C37.71 0.13 75.29 0.13 112.88 0.13C112.89 4.23 112.9 8.33 112.92 12.43C109.94 10.59 106.67 10.95 103.25 10.95C100.06 10.95 95.87 10.45 93.05 12.3C89.49 14.63 87.85 19.42 86.55 23.26C84.16 30.33 81.54 37.36 79.21 44.4C78.31 47.11 76.02 56.12 73.9 57.64C70.2 60.3 55.96 56.3 51.17 55.94C49.82 55.33 49.07 55.48 47.8 56.25C47.43 58.8 49.37 62.8 50.92 64.73C52.1 67.82 53.29 70.9 54.48 73.98C56.42 78.68 58.36 83.38 60.3 88.08C62.05 93.62 68.06 92.63 72.75 92.64C81.54 92.66 87.92 94.9 90.69 84.89C91.12 83.34 91.98 82.17 92.19 80.57C99.1 61.54 106.01 42.52 112.92 23.5C112.9 49.29 112.89 75.08 112.88 100.88C75.29 100.88 37.71 100.88 0.13 100.88C0.13 67.29 0.13 33.71 0.13 0.13ZM23.99 21.06C22.31 25.87 20.63 30.69 18.95 35.5C16.78 41.26 14.6 47.01 12.43 52.77C11.73 54.71 11.04 56.64 10.35 58.57C7.21 67.29 4.06 76.01 0.92 84.72C-3.02 93.8 13.83 93.17 18.5 92.52C23.67 92.39 25.18 87.83 26.55 83.67C26.75 83.11 26.96 82.55 27.17 81.99C30.47 73.39 33.77 64.8 37.07 56.2C38.77 50.99 40.48 45.77 42.19 40.56C45.65 31.95 49.11 23.34 52.58 14.72C54.92 12.27 51.83 10.77 49.5 10.98C45.4 10.72 32.02 9.62 28.93 11.69C25.92 13.7 25 17.86 23.99 21.06ZM56.25 17.05C54.3 18.72 54.11 21.16 53.2 23.44C50.88 29.27 49.12 35.21 47.54 41.26C46.94 43.57 45.54 46.38 45.85 48.75C49.34 50.65 59.64 50.1 64.25 50.55C66.2 50.74 68.18 51.34 69.92 50.25C70.4 47.5 68.29 44.95 67.38 42.33C65.22 36.1 62.78 29.73 60.04 23.71C59.04 21.49 58.29 18.46 56.25 17.05Z" fill="#fcfbfc" fill-rule="evenodd" stroke="#fcfbfc" stroke-width="0.25" stroke-linejoin="round"/>
<path d="M49.5 10.98C45.98 13.28 35.49 10.48 30.84 11.59C26.69 12.58 26.77 19.02 23.99 21.06C25 17.86 25.92 13.7 28.93 11.69C32.02 9.62 45.4 10.72 49.5 10.98ZM112.92 12.43C112.92 12.79 112.92 13.14 112.92 13.5C110.01 12.64 107.51 11.5 104.25 11.5C101.47 11.5 95.23 11.31 93.02 13.27C90.17 15.78 88.95 19.53 87.91 23.16C87.53 24.45 86.42 25.54 86.09 26.84C84.87 31.82 83.23 39.02 80.91 43.66C80.58 44.31 79.86 44.66 79.59 45.34C78.03 49.33 77.29 55.74 74.75 59C73.1 59 71.3 59.59 69.77 59.48C65.75 59.22 61.12 58.36 57.16 57.59C55.04 57.19 52.59 57.75 51.17 55.94C55.96 56.3 70.2 60.3 73.9 57.64C76.02 56.12 78.31 47.11 79.21 44.4C81.54 37.36 84.16 30.33 86.55 23.26C87.85 19.42 89.49 14.63 93.05 12.3C95.87 10.45 100.06 10.95 103.25 10.95C106.67 10.95 109.94 10.59 112.92 12.43ZM37.07 56.2C33.77 64.8 30.47 73.39 27.17 81.99C26.25 75.28 34.53 67.47 33.75 61.46C30.92 68.05 28.08 74.64 25.25 81.24C22.05 77.24 28.17 75.75 25.75 72.9C25.25 73.93 24.75 74.97 24.25 76C22.69 75.95 21.74 75.74 21.17 77.25C21.75 77.75 22.33 78.25 22.92 78.75C22.56 79.58 22.19 80.42 21.83 81.25C22.64 81.81 23.44 82.38 24.25 82.94C24.27 84.04 24.3 85.15 24.32 86.25C22.82 87.53 22.66 89.5 20.77 90.51C17.63 92.18 3.52 92 2.16 87.63C1.47 85.43 2.98 83.35 3.62 81.3C5.48 75.27 8.64 69.58 10.59 63.74C11.04 62.4 10.82 60.88 11.29 59.53C14.78 49.55 19.68 39.76 22.86 29.64C24.31 25.04 25.84 16.36 29.48 13.23C32.31 10.82 43.11 12.88 46.75 13.14C48.27 13.25 49.21 12.41 50.75 12.86C51 15.71 48.3 17.6 47.58 20.31C46.02 26.23 41.52 40.77 38.23 45.25C38.15 47.21 38.39 49.16 37.77 51.07C36.71 54.36 34.48 57.51 34.25 61C35.19 59.4 36.13 57.8 37.07 56.2ZM52.58 14.72C49.11 23.34 45.65 31.95 42.19 40.56C41.79 37.58 44.24 35.37 44.91 32.66C45.93 28.5 47.37 24.27 49.08 20.33C49.98 18.24 50.21 15.52 52.58 14.72ZM56.25 17.05C58.29 18.46 59.04 21.49 60.04 23.71C62.78 29.73 65.22 36.1 67.38 42.33C68.29 44.95 70.4 47.5 69.92 50.25C68.18 51.34 66.2 50.74 64.25 50.55C59.64 50.1 49.34 50.65 45.85 48.75C45.54 46.38 46.94 43.57 47.54 41.26C49.12 35.21 50.88 29.27 53.2 23.44C54.11 21.16 54.3 18.72 56.25 17.05ZM112.92 20.5C112.92 21.5 112.92 22.5 112.92 23.5C106.01 42.52 99.1 61.54 92.19 80.57C91.61 76.55 94.81 71.97 95.91 68.16C98.13 60.45 101.68 53.09 103.59 45.34C104.23 42.76 106.25 40.32 106.91 37.66C107.67 34.57 110.9 22.1 112.92 20.5ZM23.99 21.06C24.02 25.32 21.85 32.38 18.95 35.5C20.63 30.69 22.31 25.87 23.99 21.06ZM18.95 35.5C19.12 39.91 16.1 44.38 14.59 48.34C13.98 49.96 14.23 52.13 12.43 52.77C14.6 47.01 16.78 41.26 18.95 35.5ZM100.75 37.39C101.51 40.29 98.96 48.33 96.21 49.75C95.88 48.24 96.09 47.76 96.75 46.52C94.5 45.71 92.3 45.59 90.32 43.75C91.4 41.83 91.41 38.7 93.25 42.05C93.25 40.5 92.76 39.11 93.75 38.04C94.75 39.24 95.75 40.43 96.75 41.63C97.13 40.22 97.51 38.8 97.89 37.39C98.85 37.39 99.8 37.39 100.75 37.39ZM78.75 51.27C79.08 52.63 79.42 53.98 79.75 55.34C81.59 56.36 83.7 56.07 85.55 57.24C86.84 58.06 87.68 59.62 89.1 60.2C90.29 60.69 91.89 60.15 92.95 60.78C93.68 61.21 94.15 62.62 94.75 63.22C95.9 61.25 95.31 58.78 97.25 57.34C98.41 61.01 95.18 67.06 93.9 70.73C93.27 72.55 92.02 77.93 91.33 79.17C90.62 80.46 89.19 81.21 88.62 82.81C87.83 85.04 88.35 88.91 86.1 90.29C82.83 92.29 76.45 90.92 72.75 90.91C70.33 90.9 65.97 91.68 63.86 90.39C61.7 89.06 61.49 86.68 60.7 84.57C59.03 80.08 56.94 75.53 55.23 71.02C54.11 68.09 49.28 59.45 49.75 57.2C52.87 57.72 55.98 58.23 59.1 58.75C57.48 59.41 55.87 60.06 54.25 60.72C55.26 62.45 56.27 64.18 57.29 65.92C57.29 64.86 57.29 63.81 57.29 62.75C61.65 62.18 60.77 60.93 63.73 60.34C67.43 59.61 72.09 61.04 75.46 59.25C76.56 56.59 77.65 53.93 78.75 51.27ZM10.35 58.57C11.13 64.62 5.53 71.53 4.09 77.34C3.56 79.52 2.78 83.61 0.92 84.72C4.06 76.01 7.21 67.29 10.35 58.57ZM50.92 64.73C51.19 64.82 51.47 64.91 51.75 65C53.15 67.8 54.53 70.83 54.48 73.98C53.29 70.9 52.1 67.82 50.92 64.73ZM54.48 73.98C56.18 74.65 60.6 85.98 60.3 88.08C58.36 83.38 56.42 78.68 54.48 73.98ZM26.55 83.67C25.18 87.83 23.67 92.39 18.5 92.52C21.64 90.34 22.1 90.15 25 87.25C25.02 85.68 25.02 83.98 26.55 83.67Z" fill="#4f33ec" fill-rule="evenodd" stroke="#4f33ec" stroke-width="0.25" stroke-linejoin="round"/>
<path d="M49.5 10.98C51.83 10.77 54.92 12.27 52.58 14.72C50.21 15.52 49.98 18.24 49.08 20.33C47.37 24.27 45.93 28.5 44.91 32.66C44.24 35.37 41.79 37.58 42.19 40.56C40.48 45.77 38.77 50.99 37.07 56.2C36.13 57.8 35.19 59.4 34.25 61C34.48 57.51 36.71 54.36 37.77 51.07C38.39 49.16 38.15 47.21 38.23 45.25C41.52 40.77 46.02 26.23 47.58 20.31C48.3 17.6 51 15.71 50.75 12.86C49.21 12.41 48.27 13.25 46.75 13.14C43.11 12.88 32.31 10.82 29.48 13.23C25.84 16.36 24.31 25.04 22.86 29.64C19.68 39.76 14.78 49.55 11.29 59.53C10.82 60.88 11.04 62.4 10.59 63.74C8.64 69.58 5.48 75.27 3.62 81.3C2.98 83.35 1.47 85.43 2.16 87.63C3.52 92 17.63 92.18 20.77 90.51C22.66 89.5 22.82 87.53 24.32 86.25C24.3 85.15 24.27 84.04 24.25 82.94C23.44 82.38 22.64 81.81 21.83 81.25C22.19 80.42 22.56 79.58 22.92 78.75C22.33 78.25 21.75 77.75 21.17 77.25C21.74 75.74 22.69 75.95 24.25 76C24.75 74.97 25.25 73.93 25.75 72.9C28.17 75.75 22.05 77.24 25.25 81.24C28.08 74.64 30.92 68.05 33.75 61.46C34.53 67.47 26.25 75.28 27.17 81.99C26.96 82.55 26.75 83.11 26.55 83.67C25.02 83.98 25.02 85.68 25 87.25C22.1 90.15 21.64 90.34 18.5 92.52C13.83 93.17 -3.02 93.8 0.92 84.72C2.78 83.61 3.56 79.52 4.09 77.34C5.53 71.53 11.13 64.62 10.35 58.57C11.04 56.64 11.73 54.71 12.43 52.77C14.23 52.13 13.98 49.96 14.59 48.34C16.1 44.38 19.12 39.91 18.95 35.5C21.85 32.38 24.02 25.32 23.99 21.06C26.77 19.02 26.69 12.58 30.84 11.59C35.49 10.48 45.98 13.28 49.5 10.98ZM112.92 13.5C112.92 15.83 112.92 18.17 112.92 20.5C110.9 22.1 107.67 34.57 106.91 37.66C106.25 40.32 104.23 42.76 103.59 45.34C101.68 53.09 98.13 60.45 95.91 68.16C94.81 71.97 91.61 76.55 92.19 80.57C91.98 82.17 91.12 83.34 90.69 84.89C87.92 94.9 81.54 92.66 72.75 92.64C68.06 92.63 62.05 93.62 60.3 88.08C60.6 85.98 56.18 74.65 54.48 73.98C54.53 70.83 53.15 67.8 51.75 65C51.47 64.91 51.19 64.82 50.92 64.73C49.37 62.8 47.43 58.8 47.8 56.25C49.07 55.48 49.82 55.33 51.17 55.94C52.59 57.75 55.04 57.19 57.16 57.59C61.12 58.36 65.75 59.22 69.77 59.48C71.3 59.59 73.1 59 74.75 59C77.29 55.74 78.03 49.33 79.59 45.34C79.86 44.66 80.58 44.31 80.91 43.66C83.23 39.02 84.87 31.82 86.09 26.84C86.42 25.54 87.53 24.45 87.91 23.16C88.95 19.53 90.17 15.78 93.02 13.27C95.23 11.31 101.47 11.5 104.25 11.5C107.51 11.5 110.01 12.64 112.92 13.5ZM100.75 37.39C99.8 37.39 98.85 37.39 97.89 37.39C97.51 38.8 97.13 40.22 96.75 41.63C95.75 40.43 94.75 39.24 93.75 38.04C92.76 39.11 93.25 40.5 93.25 42.05C91.41 38.7 91.4 41.83 90.32 43.75C92.3 45.59 94.5 45.71 96.75 46.52C96.09 47.76 95.88 48.24 96.21 49.75C98.96 48.33 101.51 40.29 100.75 37.39ZM78.75 51.27C77.65 53.93 76.56 56.59 75.46 59.25C72.09 61.04 67.43 59.61 63.73 60.34C60.77 60.93 61.65 62.18 57.29 62.75C57.29 63.81 57.29 64.86 57.29 65.92C56.27 64.18 55.26 62.45 54.25 60.72C55.87 60.06 57.48 59.41 59.1 58.75C55.98 58.23 52.87 57.72 49.75 57.2C49.28 59.45 54.11 68.09 55.23 71.02C56.94 75.53 59.03 80.08 60.7 84.57C61.49 86.68 61.7 89.06 63.86 90.39C65.97 91.68 70.33 90.9 72.75 90.91C76.45 90.92 82.83 92.29 86.1 90.29C88.35 88.91 87.83 85.04 88.62 82.81C89.19 81.21 90.62 80.46 91.33 79.17C92.02 77.93 93.27 72.55 93.9 70.73C95.18 67.06 98.41 61.01 97.25 57.34C95.31 58.78 95.9 61.25 94.75 63.22C94.15 62.62 93.68 61.21 92.95 60.78C91.89 60.15 90.29 60.69 89.1 60.2C87.68 59.62 86.84 58.06 85.55 57.24C83.7 56.07 81.59 56.36 79.75 55.34C79.42 53.98 79.08 52.63 78.75 51.27Z" fill="#5941ee" fill-rule="evenodd" stroke="#5941ee" stroke-width="0.25" stroke-linejoin="round"/>
</svg>