<?xml version="1.0" encoding="UTF-8"?>
<svg xmlns="http://www.w3.org/2000/svg" viewBox="0 0 90 96" width="90" height="96">
<path d="M46.2 16.58C56.13 21.45 66.06 26.33 75.99 31.2C77.43 32.22 78.88 33.23 80.33 34.25C79.9 35.28 79.46 36.31 79.03 37.34C77.96 37.78 76.71 38.29 76.27 39.49C75.28 42.16 75.81 56.1 77.48 58.19C79.07 61.44 79.95 68.35 74.25 68.18C68.79 68.01 69.37 61.53 71.03 58.2C73.18 55.73 73.6 44.4 71.88 41.75C68.84 41.15 56.21 47.75 53.74 49.95C51.69 50.91 49.64 51.87 47.58 52.83C46.14 53.54 44.71 54.25 43.27 54.96C40.53 55.79 38.32 53.84 35.79 52.92C26.02 48.05 16.25 43.17 6.48 38.3C4.27 37.4 3.3 36.7 2.93 34.25C3.81 33.41 4.69 32.56 5.57 31.72C16.31 26.67 27.04 21.62 37.78 16.57C40.87 15.57 43.12 15.67 46.2 16.58ZM21.92 52.08C25.22 55.53 31.89 57.67 36.2 59.67C37.68 60.36 39.6 61.95 41.26 62C43.61 62.07 57.53 54.8 59.24 53.04C61.68 52.21 63.27 51.37 63.98 54.5C63.28 59.64 65.28 66.02 63.58 71C62.68 73.65 58.16 75.27 56.05 76.76C52.18 79.49 46.19 83.44 41.25 83.38C35.06 83.29 26.39 76.68 20.99 73.83C20.29 73.06 19.41 72.21 19.11 71.18C18.33 68.44 18.27 55.06 19.47 52.75C20.28 52.53 21.1 52.3 21.92 52.08Z" fill="#1f73dd" fill-rule="evenodd" stroke="#1f73dd" stroke-width="0.25" stroke-linejoin="round"/>
</svg>